<svg version="1.1" xmlns="http://www.w3.org/2000/svg" width="500" height="500"><defs><clipPath id="cMZWcLgmaOTr"><path fill="none" stroke="none" d="M 0.5 0.5 L 500.5 0.5 L 500.5 500.5 L 0.5 500.5 L 0.5 0.5 Z M 43.5 5.5 L 470.5 5.5 L 470.5 455.5 L 43.5 455.5 L 43.5 5.5 Z" clip-rule="evenodd"/></clipPath><clipPath id="osCMPDqQgXuW"><path fill="none" stroke="none" d="M 43.5 5.5 L 470.5 5.5 L 470.5 455.5 L 43.5 455.5 L 43.5 5.5 Z"/></clipPath><clipPath id="KDTrxnbcgkQh"><path fill="none" stroke="none" d="M 43.5 5.5 L 470.5 5.5 L 470.5 455.5 L 43.5 455.5 L 43.5 5.5 Z"/></clipPath><clipPath id="xsDXQpTyTIsn"><path fill="none" stroke="none" d="M 43.5 5.5 L 470.5 5.5 L 470.5 455.5 L 43.5 455.5 L 43.5 5.5 Z"/></clipPath><clipPath id="EttHzIALhKIR"><path fill="none" stroke="none" d="M 43.5 5.5 L 470.5 5.5 L 470.5 455.5 L 43.5 455.5 L 43.5 5.5 Z"/></clipPath><clipPath id="bLfqvhrkuSNs"><path fill="none" stroke="none" d="M 43.5 5.5 L 470.5 5.5 L 470.5 455.5 L 43.5 455.5 L 43.5 5.5 Z"/></clipPath><clipPath id="etVVBrqNFthR"><path fill="none" stroke="none" d="M 43.5 5.5 L 470.5 5.5 L 470.5 455.5 L 43.5 455.5 L 43.5 5.5 Z"/></clipPath></defs><path fill="#ffffff" stroke="none" paint-order="stroke" d="M 0.5 0.5 L 500.5 0.5 L 500.5 500.5 L 0.5 500.5 L 0.5 0.5 Z" fill-rule="nonzero" clip-path="url(#cMZWcLgmaOTr)"/><path fill="#ffffff" stroke="none" paint-order="stroke" d="M 43.5 5.5 L 470.5 5.5 L 470.5 455.5 L 43.5 455.5 L 43.5 5.5 Z"/><path fill="none" stroke="#e5e5e5" paint-order="fill" d="M 43.5 5.5 L 470.5 5.5 L 470.5 455.5 L 43.5 455.5 L 43.5 5.5 Z" stroke-linejoin="bevel" stroke-miterlimit="10"/><path fill="none" stroke="#e5e5e5" paint-order="fill" d="M 138.5 455.5 L 138.5 5.5 M 247.5 455.5 L 247.5 5.5 M 356.5 455.5 L 356.5 5.5 M 464.5 455.5 L 464.5 5.5" stroke-linejoin="bevel" stroke-miterlimit="10" clip-path="url(#osCMPDqQgXuW)"/><path fill="none" stroke="#e5e5e5" paint-order="fill" d="M 43.5 437.5 L 470.5 437.5 M 43.5 367.5 L 470.5 367.5 M 43.5 296.5 L 470.5 296.5 M 43.5 226.5 L 470.5 226.5 M 43.5 155.5 L 470.5 155.5 M 43.5 85.5 L 470.5 85.5 M 43.5 14.5 L 470.5 14.5" stroke-linejoin="bevel" stroke-miterlimit="10" clip-path="url(#KDTrxnbcgkQh)"/><path fill="none" stroke="#1f77b4" paint-order="fill" d="M 71.14193725585938 240.4854736328125 L 71.94567108154297 239.34140014648438 L 72.74940490722656 238.0309600830078 L 73.61830139160156 236.78919982910156 L 74.4872055053711 235.62156677246094 L 75.35610961914062 234.79818725585938 L 76.3553466796875 233.93496704101562 L 77.33285522460938 233.14517211914062 L 78.41898345947266 232.57089233398438 L 79.461669921875 232.00595092773438 L 80.56951904296875 231.0560760498047 L 81.82942199707031 230.04136657714844 L 83.02416229248047 229.27268981933594 L 84.4144058227539 228.44436645507812 L 85.7394790649414 228.1268310546875 L 87.15145111083984 228.25970458984375 L 88.73719024658203 228.79957580566406 L 90.30121612548828 230.2550048828125 L 92.10418701171875 232.60211181640625 L 93.84198760986328 237.08193969726562 L 95.68840789794922 249.02915954589844 L 97.81721496582031 291.6676330566406 L 99.92430114746094 339.877197265625 L 102.33550262451172 281.7224426269531 L 104.72498321533203 220.4502716064453 L 107.26651763916016 92.2349624633789 L 110.24250793457031 91.46202087402344 L 113.19677734375 31.01524543762207 L 116.6506576538086 25.954545974731445 L 120.10454559326172 92.45934295654297 L 123.8408203125 145.50802612304688 L 128.272216796875 171.1309814453125 L 132.725341796875 177.36251831054688 L 138.04736328125 172.8363494873047 L 143.47799682617188 165.29827880859375 L 149.49514770507812 159.45126342773438 L 156.77218627929688 157.6880645751953 L 164.30992126464844 167.4796142578125 L 173.58543395996094 192.0640411376953 L 183.36058044433594 228.4771270751953 L 194.54769897460938 272.11566162109375 L 208.68907165527344 318.31793212890625 L 224.09034729003906 355.3890380859375 L 244.07508850097656 385.4635925292969 L 266.6665344238281 405.1322937011719 L 294.47137451171875 418.0609436035156 L 332.9202880859375 426.9605712890625 L 380.0581970214844 432.0222473144531 L 451.0909118652344 435.0454406738281" stroke-linejoin="bevel" stroke-miterlimit="10" stroke-width="2" clip-path="url(#xsDXQpTyTIsn)"/><path fill="none" stroke="#ff7f0e" paint-order="fill" d="M 62.90909194946289 224.99127197265625 L 63.995216369628906 214.37841796875 L 65.08134460449219 197.5452117919922 L 66.16747283935547 186.94659423828125 L 67.25360107421875 173.5218048095703 L 68.33972930908203 151.04293823242188 L 69.42584991455078 148.21502685546875 L 70.51197814941406 156.1013641357422 L 71.59810638427734 146.29627990722656 L 72.68423461914062 130.9073486328125 L 73.7703628540039 121.19612121582031 L 74.85649108886719 127.5200424194336 L 75.94261932373047 142.04318237304688 L 77.02873992919922 152.13882446289062 L 78.1148681640625 153.8438720703125 L 79.20099639892578 150.61532592773438 L 80.28712463378906 145.55288696289062 L 81.37325286865234 141.28636169433594 L 82.45938110351562 139.51559448242188 L 83.54550170898438 142.08412170410156 L 84.63162994384766 147.67515563964844 L 85.71775817871094 156.1585235595703 L 86.80388641357422 165.04351806640625 L 87.8900146484375 173.2186279296875 L 88.97614288330078 179.13417053222656 L 90.06227111816406 183.30172729492188 L 91.14839172363281 185.41839599609375 L 92.2345199584961 185.92486572265625 L 93.32064819335938 185.4893341064453 L 94.40677642822266 184.45980834960938 L 95.49290466308594 183.0422821044922 L 96.57903289794922 181.4688720703125 L 97.6651611328125 180.20448303222656 L 98.75128173828125 179.11276245117188 L 99.83740997314453 178.85159301757812 L 100.92353820800781 179.0829315185547 L 102.0096664428711 180.1025390625 L 103.09579467773438 181.82803344726562 L 104.18192291259766 184.2174530029297 L 105.2680435180664 187.2246856689453 L 106.35417175292969 190.69387817382812 L 107.44029998779297 194.51206970214844 L 108.52642822265625 198.5438232421875 L 109.61255645751953 202.60733032226562 L 110.69868469238281 206.69131469726562 L 111.7848129272461 210.57583618164062 L 112.87093353271484 214.1986083984375 L 113.95706176757812 217.47073364257812 L 115.0431900024414 220.39378356933594 L 116.12931823730469 222.91395568847656 L 117.21544647216797 225.07110595703125 L 118.30157470703125 226.79934692382812 L 119.3876953125 228.16531372070312 L 120.47382354736328 229.1637725830078 L 121.55995178222656 229.86306762695312 L 122.64608001708984 230.26011657714844 L 123.73220825195312 230.3835906982422 L 124.8183364868164 230.25302124023438 L 125.90446472167969 229.9280242919922 L 126.99058532714844 229.41275024414062 L 128.07671356201172 228.73794555664062 L 129.162841796875 227.93905639648438 L 130.24896240234375 227.04226684570312 L 131.33509826660156 226.06724548339844 L 132.4212188720703 225.01768493652344 L 133.50735473632812 223.92564392089844 L 134.59347534179688 222.81837463378906 L 135.6796112060547 221.69064331054688 L 136.76573181152344 220.57652282714844 L 137.8518524169922 219.47991943359375 L 138.93798828125 218.43898010253906 L 140.02410888671875 217.44593811035156 L 141.11024475097656 216.5035400390625 L 142.1963653564453 215.63661193847656 L 143.28250122070312 214.86231994628906 L 144.36862182617188 214.1512451171875 L 145.45474243164062 213.56153869628906 L 146.54087829589844 213.0574951171875 L 147.6269989013672 212.67507934570312 L 148.713134765625 212.41049194335938 L 149.79925537109375 212.27342224121094 L 150.88539123535156 212.27227783203125 L 151.9715118408203 212.3999786376953 L 153.05763244628906 212.63352966308594 L 154.14376831054688 213.00527954101562 L 155.22988891601562 213.5319366455078 L 156.31602478027344 214.19671630859375 L 157.4021453857422 214.97154235839844 L 158.48828125 215.90040588378906 L 159.57440185546875 216.93783569335938 L 160.6605224609375 218.1342010498047 L 161.7466583251953 219.41624450683594 L 162.83277893066406 220.837890625 L 163.91891479492188 222.3907928466797 L 165.00503540039062 224.05140686035156 L 166.09115600585938 225.80860900878906 L 167.1772918701172 227.67713928222656 L 168.26341247558594 229.63417053222656 L 169.34954833984375 231.70436096191406 L 170.4356689453125 233.8498077392578 L 171.5218048095703 236.05116271972656 L 172.60792541503906 238.33946228027344 L 173.6940460205078 240.6766357421875 L 174.78018188476562 243.09481811523438 L 175.86630249023438 245.5579376220703 L 176.9524383544922 248.01983642578125 L 178.03855895996094 250.59959411621094 L 179.12469482421875 253.17681884765625 L 180.2108154296875 255.76290893554688 L 181.29693603515625 258.3713073730469 L 182.38307189941406 261.0052185058594 L 183.4691925048828 263.6441955566406 L 184.55532836914062 266.2721252441406 L 185.64144897460938 268.9066467285156 L 186.7275848388672 271.5450744628906 L 187.81370544433594 274.16937255859375 L 188.8998260498047 276.7477722167969 L 189.9859619140625 279.3116149902344 L 191.07208251953125 281.84063720703125 L 192.15821838378906 284.3443298339844 L 193.2443389892578 286.8050537109375 L 194.33047485351562 289.1844482421875 L 195.41659545898438 291.54669189453125 L 196.50271606445312 293.8261413574219 L 197.58885192871094 296.1038818359375 L 198.6749725341797 298.2834167480469 L 199.7611083984375 300.4111022949219 L 200.84722900390625 302.4419860839844 L 201.933349609375 304.4439697265625 L 203.0194854736328 306.3731384277344 L 204.10560607910156 308.31195068359375 L 205.19174194335938 310.1252136230469 L 206.27786254882812 311.9598083496094 L 207.36399841308594 313.77130126953125 L 208.4501190185547 315.5679626464844 L 209.53623962402344 317.341796875 L 210.62237548828125 319.2005310058594 L 211.70849609375 321.0894775390625 L 212.7946319580078 323.05804443359375 L 213.88075256347656 325.0776062011719 L 214.96688842773438 327.1637268066406 L 216.05300903320312 329.3056640625 L 217.13912963867188 331.5467224121094 L 218.2252655029297 333.7989807128906 L 219.31138610839844 336.1056213378906 L 220.39752197265625 338.4344482421875 L 221.483642578125 340.7997741699219 L 222.5697784423828 343.1318664550781 L 223.65589904785156 345.4693603515625 L 224.7420196533203 347.82415771484375 L 225.82815551757812 350.1076354980469 L 226.91427612304688 352.35467529296875 L 228.0004119873047 354.5859680175781 L 229.08653259277344 356.75408935546875 L 230.17266845703125 358.8082580566406 L 231.2587890625 360.8659362792969 L 232.34490966796875 362.8489685058594 L 233.43104553222656 364.75152587890625 L 234.5171661376953 366.6274719238281 L 235.60330200195312 368.4709777832031 L 236.68942260742188 370.2120666503906 L 237.77554321289062 371.8953552246094 L 238.86167907714844 373.5431213378906 L 239.9477996826172 375.1474609375 L 241.033935546875 376.6961364746094 L 242.12005615234375 378.1859130859375 L 243.20619201660156 379.63726806640625 L 244.2923126220703 381.0327453613281 L 245.37843322753906 382.3935546875 L 246.46456909179688 383.7001647949219 L 247.55068969726562 384.96673583984375 L 248.63682556152344 386.20562744140625 L 249.7229461669922 387.4024658203125 L 250.80908203125 388.55255126953125 L 251.89520263671875 389.66302490234375 L 252.9813232421875 390.74237060546875 L 254.0674591064453 391.80694580078125 L 255.15357971191406 392.8286437988281 L 256.2397155761719 393.81683349609375 L 257.3258361816406 394.76715087890625 L 258.4119567871094 395.6920471191406 L 259.4980773925781 396.62371826171875 L 260.584228515625 397.4925231933594 L 261.67034912109375 398.3603515625 L 262.7564697265625 399.1749267578125 L 263.84259033203125 399.9661560058594 L 264.9287414550781 400.7533264160156 L 266.0148620605469 401.5169982910156 L 267.1009826660156 402.251953125 L 268.1871032714844 402.9748840332031 L 269.2732238769531 403.6771545410156 L 270.359375 404.3565368652344 L 271.44549560546875 405.0146179199219 L 272.5316162109375 405.6620178222656 L 273.61773681640625 406.2835388183594 L 274.703857421875 406.8977966308594 L 275.7900085449219 407.486572265625 L 276.8761291503906 408.0628967285156 L 277.9622497558594 408.63323974609375 L 279.0483703613281 409.1777038574219 L 280.134521484375 409.7129821777344 L 281.22064208984375 410.24407958984375 L 282.3067626953125 410.73199462890625 L 283.39288330078125 411.2376403808594 L 284.47900390625 411.7217712402344 L 285.5651550292969 412.1792297363281 L 286.6512756347656 412.63427734375 L 287.7373962402344 413.0964050292969 L 288.8235168457031 413.53125 L 289.9096374511719 413.9638977050781 L 290.99578857421875 414.3712158203125 L 292.0819091796875 414.7819519042969 L 293.16802978515625 415.1803283691406 L 294.254150390625 415.5685119628906 L 295.34027099609375 415.9446105957031 L 296.4264221191406 416.30499267578125 L 297.5125427246094 416.6629333496094 L 298.5986633300781 417.0241394042969 L 299.6847839355469 417.36431884765625 L 300.77093505859375 417.70263671875 L 301.8570556640625 418.0279846191406 L 302.94317626953125 418.3549499511719 L 304.029296875 418.662841796875 L 305.11541748046875 418.9742126464844 L 306.2015686035156 419.2719421386719 L 307.2876892089844 419.56939697265625 L 308.3738098144531 419.85284423828125 L 309.4599304199219 420.1326599121094 L 310.5460510253906 420.4071960449219 L 311.6322021484375 420.6783142089844 L 312.71832275390625 420.9381103515625 L 313.804443359375 421.197265625 L 314.89056396484375 421.44927978515625 L 315.9767150878906 421.6960144042969 L 317.0628356933594 421.9319763183594 L 318.1489562988281 422.1688232421875 L 319.2350769042969 422.40753173828125 L 320.3211975097656 422.6363525390625 L 321.4073486328125 422.84173583984375 L 322.49346923828125 423.05694580078125 L 323.57958984375 423.2732849121094 L 324.66571044921875 423.4866027832031 L 340.9576110839844 426.1564025878906 L 342.04376220703125 426.3048400878906 L 343.1298828125 426.4515075683594 L 344.21600341796875 426.6003723144531 L 345.3021240234375 426.7449951171875 L 346.38824462890625 426.8882751464844 L 347.4743957519531 427.0274963378906 L 348.5605163574219 427.16192626953125 L 349.6466369628906 427.2846984863281 L 350.7327575683594 427.4320068359375 L 351.81890869140625 427.5448913574219 L 352.905029296875 427.6842956542969 L 353.99114990234375 427.79827880859375 L 355.0772705078125 427.92584228515625 L 356.16339111328125 428.0397033691406 L 357.2495422363281 428.1595153808594 L 358.3356628417969 428.27276611328125 L 359.4217834472656 428.3856506347656 L 360.5079040527344 428.488037109375 L 361.5940246582031 428.6031799316406 L 362.68017578125 428.70361328125 L 363.76629638671875 428.8058166503906 L 364.8524169921875 428.91082763671875 L 365.93853759765625 429.013916015625 L 367.024658203125 429.1141052246094 L 368.1108093261719 429.21240234375 L 369.1969299316406 429.30560302734375 L 370.2830505371094 429.39837646484375 L 371.3691711425781 429.4938049316406 L 372.455322265625 429.593505859375 L 373.54144287109375 429.675537109375 L 374.6275634765625 429.7678527832031 L 375.71368408203125 429.8494567871094 L 376.7998046875 429.94842529296875 L 377.8859558105469 430.0360107421875 L 378.9720764160156 430.1246337890625 L 380.0581970214844 430.1887512207031 L 381.1443176269531 430.2740783691406 L 382.2304382324219 430.3498840332031 L 383.31658935546875 430.42681884765625 L 384.4027099609375 430.50250244140625 L 385.48883056640625 430.58538818359375 L 386.574951171875 430.6553955078125 L 387.6611022949219 430.7301025390625 L 388.7472229003906 430.79754638671875 L 389.8333435058594 430.86370849609375 L 390.9194641113281 430.9483947753906 L 392.0055847167969 431.02386474609375 L 393.09173583984375 431.1214294433594 L 394.1778564453125 431.2525329589844 L 395.26397705078125 431.3225402832031 L 396.35009765625 431.36480712890625 L 397.43621826171875 431.35015869140625 L 398.5223693847656 431.3626403808594 L 399.6084899902344 431.3891296386719" stroke-linejoin="bevel" stroke-miterlimit="10" stroke-width="2" clip-path="url(#EttHzIALhKIR)"/><path fill="none" stroke="black" paint-order="fill" d="M 43.5 455.5 L 470.5 455.5" stroke-linejoin="bevel" stroke-miterlimit="10"/><path fill="none" stroke="black" paint-order="fill" d="M 138.5 461.5 L 138.5 453.5 M 247.5 461.5 L 247.5 453.5 M 356.5 461.5 L 356.5 453.5 M 464.5 461.5 L 464.5 453.5" stroke-linejoin="bevel" stroke-miterlimit="10"/><path fill="none" stroke="black" paint-order="fill" d="M 117.5 459.5 L 117.5 455.5 M 95.5 459.5 L 95.5 455.5 M 73.5 459.5 L 73.5 455.5 M 52.5 459.5 L 52.5 455.5 M 138.5 459.5 L 138.5 455.5 M 160.5 459.5 L 160.5 455.5 M 182.5 459.5 L 182.5 455.5 M 204.5 459.5 L 204.5 455.5 M 225.5 459.5 L 225.5 455.5 M 247.5 459.5 L 247.5 455.5 M 269.5 459.5 L 269.5 455.5 M 290.5 459.5 L 290.5 455.5 M 312.5 459.5 L 312.5 455.5 M 334.5 459.5 L 334.5 455.5 M 356.5 459.5 L 356.5 455.5 M 377.5 459.5 L 377.5 455.5 M 399.5 459.5 L 399.5 455.5 M 421.5 459.5 L 421.5 455.5 M 443.5 459.5 L 443.5 455.5 M 464.5 459.5 L 464.5 455.5" stroke-linejoin="bevel" stroke-miterlimit="10"/><text fill="#444444" stroke="none" font-family="helvetica" font-size="11px" font-style="normal" font-weight="normal" text-decoration="normal" x="130.792236328125" y="474" text-anchor="start" dominant-baseline="alphabetic" transform="matrix(1, 0, 0, 1, 0.5, 0.5)">0.5</text><text fill="none" stroke="rgb(0 0 0 / 0)" font-family="helvetica" font-size="11px" font-style="normal" font-weight="normal" text-decoration="normal" x="130.792236328125" y="474" text-anchor="start" dominant-baseline="alphabetic" transform="matrix(1, 0, 0, 1, 0.5, 0.5)" stroke-linejoin="bevel" stroke-miterlimit="10">0.5</text><text fill="#444444" stroke="none" font-family="helvetica" font-size="11px" font-style="normal" font-weight="normal" text-decoration="normal" x="243.99185180664062" y="474" text-anchor="start" dominant-baseline="alphabetic" transform="matrix(1, 0, 0, 1, 0.5, 0.5)">1</text><text fill="none" stroke="rgb(0 0 0 / 0)" font-family="helvetica" font-size="11px" font-style="normal" font-weight="normal" text-decoration="normal" x="243.99185180664062" y="474" text-anchor="start" dominant-baseline="alphabetic" transform="matrix(1, 0, 0, 1, 0.5, 0.5)" stroke-linejoin="bevel" stroke-miterlimit="10">1</text><text fill="#444444" stroke="none" font-family="helvetica" font-size="11px" font-style="normal" font-weight="normal" text-decoration="normal" x="348.01763916015625" y="474" text-anchor="start" dominant-baseline="alphabetic" transform="matrix(1, 0, 0, 1, 0.5, 0.5)">1.5</text><text fill="none" stroke="rgb(0 0 0 / 0)" font-family="helvetica" font-size="11px" font-style="normal" font-weight="normal" text-decoration="normal" x="348.01763916015625" y="474" text-anchor="start" dominant-baseline="alphabetic" transform="matrix(1, 0, 0, 1, 0.5, 0.5)" stroke-linejoin="bevel" stroke-miterlimit="10">1.5</text><text fill="#444444" stroke="none" font-family="helvetica" font-size="11px" font-style="normal" font-weight="normal" text-decoration="normal" x="461.21728515625" y="474" text-anchor="start" dominant-baseline="alphabetic" transform="matrix(1, 0, 0, 1, 0.5, 0.5)">2</text><text fill="none" stroke="rgb(0 0 0 / 0)" font-family="helvetica" font-size="11px" font-style="normal" font-weight="normal" text-decoration="normal" x="461.21728515625" y="474" text-anchor="start" dominant-baseline="alphabetic" transform="matrix(1, 0, 0, 1, 0.5, 0.5)" stroke-linejoin="bevel" stroke-miterlimit="10">2</text><text fill="#444444" stroke="none" font-family="helvetica" font-size="13px" font-style="italic" font-weight="normal" text-decoration="normal" x="207.1279296875" y="494" text-anchor="start" dominant-baseline="alphabetic" transform="matrix(1, 0, 0, 1, 0.5, 0.5)">Wavelength (nm)</text><text fill="none" stroke="rgb(0 0 0 / 0)" font-family="helvetica" font-size="13px" font-style="italic" font-weight="normal" text-decoration="normal" x="207.1279296875" y="494" text-anchor="start" dominant-baseline="alphabetic" transform="matrix(1, 0, 0, 1, 0.5, 0.5)" stroke-linejoin="bevel" stroke-miterlimit="10">Wavelength (nm)</text><path fill="none" stroke="black" paint-order="fill" d="M 43.5 455.5 L 43.5 5.5" stroke-linejoin="bevel" stroke-miterlimit="10"/><path fill="none" stroke="black" paint-order="fill" d="M 37.5 437.5 L 45.5 437.5 M 37.5 367.5 L 45.5 367.5 M 37.5 296.5 L 45.5 296.5 M 37.5 226.5 L 45.5 226.5 M 37.5 155.5 L 45.5 155.5 M 37.5 85.5 L 45.5 85.5 M 37.5 14.5 L 45.5 14.5" stroke-linejoin="bevel" stroke-miterlimit="10"/><path fill="none" stroke="black" paint-order="fill" d="M 39.5 451.5 L 43.5 451.5 M 39.5 437.5 L 43.5 437.5 M 39.5 423.5 L 43.5 423.5 M 39.5 409.5 L 43.5 409.5 M 39.5 395.5 L 43.5 395.5 M 39.5 381.5 L 43.5 381.5 M 39.5 367.5 L 43.5 367.5 M 39.5 353.5 L 43.5 353.5 M 39.5 339.5 L 43.5 339.5 M 39.5 325.5 L 43.5 325.5 M 39.5 310.5 L 43.5 310.5 M 39.5 296.5 L 43.5 296.5 M 39.5 282.5 L 43.5 282.5 M 39.5 268.5 L 43.5 268.5 M 39.5 254.5 L 43.5 254.5 M 39.5 240.5 L 43.5 240.5 M 39.5 226.5 L 43.5 226.5 M 39.5 212.5 L 43.5 212.5 M 39.5 198.5 L 43.5 198.5 M 39.5 184.5 L 43.5 184.5 M 39.5 169.5 L 43.5 169.5 M 39.5 155.5 L 43.5 155.5 M 39.5 141.5 L 43.5 141.5 M 39.5 127.5 L 43.5 127.5 M 39.5 113.5 L 43.5 113.5 M 39.5 99.5 L 43.5 99.5 M 39.5 85.5 L 43.5 85.5 M 39.5 71.5 L 43.5 71.5 M 39.5 57.5 L 43.5 57.5 M 39.5 43.5 L 43.5 43.5 M 39.5 28.5 L 43.5 28.5 M 39.5 14.5 L 43.5 14.5" stroke-linejoin="bevel" stroke-miterlimit="10"/><text fill="#444444" stroke="none" font-family="helvetica" font-size="11px" font-style="normal" font-weight="normal" text-decoration="normal" x="25.88232421875" y="441.3934631347656" text-anchor="start" dominant-baseline="alphabetic" transform="matrix(1, 0, 0, 1, 0.5, 0.5)">0</text><text fill="none" stroke="rgb(0 0 0 / 0)" font-family="helvetica" font-size="11px" font-style="normal" font-weight="normal" text-decoration="normal" x="25.88232421875" y="441.3934631347656" text-anchor="start" dominant-baseline="alphabetic" transform="matrix(1, 0, 0, 1, 0.5, 0.5)" stroke-linejoin="bevel" stroke-miterlimit="10">0</text><text fill="#444444" stroke="none" font-family="helvetica" font-size="11px" font-style="normal" font-weight="normal" text-decoration="normal" x="25.88232421875" y="370.88604736328125" text-anchor="start" dominant-baseline="alphabetic" transform="matrix(1, 0, 0, 1, 0.5, 0.5)">1</text><text fill="none" stroke="rgb(0 0 0 / 0)" font-family="helvetica" font-size="11px" font-style="normal" font-weight="normal" text-decoration="normal" x="25.88232421875" y="370.88604736328125" text-anchor="start" dominant-baseline="alphabetic" transform="matrix(1, 0, 0, 1, 0.5, 0.5)" stroke-linejoin="bevel" stroke-miterlimit="10">1</text><text fill="#444444" stroke="none" font-family="helvetica" font-size="11px" font-style="normal" font-weight="normal" text-decoration="normal" x="25.88232421875" y="300.378662109375" text-anchor="start" dominant-baseline="alphabetic" transform="matrix(1, 0, 0, 1, 0.5, 0.5)">2</text><text fill="none" stroke="rgb(0 0 0 / 0)" font-family="helvetica" font-size="11px" font-style="normal" font-weight="normal" text-decoration="normal" x="25.88232421875" y="300.378662109375" text-anchor="start" dominant-baseline="alphabetic" transform="matrix(1, 0, 0, 1, 0.5, 0.5)" stroke-linejoin="bevel" stroke-miterlimit="10">2</text><text fill="#444444" stroke="none" font-family="helvetica" font-size="11px" font-style="normal" font-weight="normal" text-decoration="normal" x="25.88232421875" y="229.8712615966797" text-anchor="start" dominant-baseline="alphabetic" transform="matrix(1, 0, 0, 1, 0.5, 0.5)">3</text><text fill="none" stroke="rgb(0 0 0 / 0)" font-family="helvetica" font-size="11px" font-style="normal" font-weight="normal" text-decoration="normal" x="25.88232421875" y="229.8712615966797" text-anchor="start" dominant-baseline="alphabetic" transform="matrix(1, 0, 0, 1, 0.5, 0.5)" stroke-linejoin="bevel" stroke-miterlimit="10">3</text><text fill="#444444" stroke="none" font-family="helvetica" font-size="11px" font-style="normal" font-weight="normal" text-decoration="normal" x="25.88232421875" y="159.36386108398438" text-anchor="start" dominant-baseline="alphabetic" transform="matrix(1, 0, 0, 1, 0.5, 0.5)">4</text><text fill="none" stroke="rgb(0 0 0 / 0)" font-family="helvetica" font-size="11px" font-style="normal" font-weight="normal" text-decoration="normal" x="25.88232421875" y="159.36386108398438" text-anchor="start" dominant-baseline="alphabetic" transform="matrix(1, 0, 0, 1, 0.5, 0.5)" stroke-linejoin="bevel" stroke-miterlimit="10">4</text><text fill="#444444" stroke="none" font-family="helvetica" font-size="11px" font-style="normal" font-weight="normal" text-decoration="normal" x="25.88232421875" y="88.85646057128906" text-anchor="start" dominant-baseline="alphabetic" transform="matrix(1, 0, 0, 1, 0.5, 0.5)">5</text><text fill="none" stroke="rgb(0 0 0 / 0)" font-family="helvetica" font-size="11px" font-style="normal" font-weight="normal" text-decoration="normal" x="25.88232421875" y="88.85646057128906" text-anchor="start" dominant-baseline="alphabetic" transform="matrix(1, 0, 0, 1, 0.5, 0.5)" stroke-linejoin="bevel" stroke-miterlimit="10">5</text><text fill="#444444" stroke="none" font-family="helvetica" font-size="11px" font-style="normal" font-weight="normal" text-decoration="normal" x="25.88232421875" y="18.349059104919434" text-anchor="start" dominant-baseline="alphabetic" transform="matrix(1, 0, 0, 1, 0.5, 0.5)">6</text><text fill="none" stroke="rgb(0 0 0 / 0)" font-family="helvetica" font-size="11px" font-style="normal" font-weight="normal" text-decoration="normal" x="25.88232421875" y="18.349059104919434" text-anchor="start" dominant-baseline="alphabetic" transform="matrix(1, 0, 0, 1, 0.5, 0.5)" stroke-linejoin="bevel" stroke-miterlimit="10">6</text><text fill="#444444" stroke="none" font-family="helvetica" font-size="13px" font-style="italic" font-weight="normal" text-decoration="normal" x="5.596435546875" y="227" text-anchor="start" dominant-baseline="alphabetic" transform="matrix(6.123233995736766e-17, -1, 1, 6.123233995736766e-17, -211.61767578125, 248.38232421875)">qext</text><text fill="none" stroke="rgb(0 0 0 / 0)" font-family="helvetica" font-size="13px" font-style="italic" font-weight="normal" text-decoration="normal" x="5.596435546875" y="227" text-anchor="start" dominant-baseline="alphabetic" transform="matrix(6.123233995736766e-17, -1, 1, 6.123233995736766e-17, -211.61767578125, 248.38232421875)" stroke-linejoin="bevel" stroke-miterlimit="10">qext</text><path fill="rgb(255 255 255 / 0.9490196078431372)" stroke="rgb(229 229 229 / 0.5019607843137255)" paint-order="fill" d="M 371.5 15.5 L 460.5 15.5 L 460.5 78.5 L 371.5 78.5 L 371.5 15.5 Z" fill-rule="nonzero" clip-path="url(#bLfqvhrkuSNs)" stroke-linejoin="bevel" stroke-miterlimit="10"/><path fill="none" stroke="#1f77b4" paint-order="fill" d="M 381.5 35.5 L 401.5 35.5" stroke-linejoin="bevel" stroke-miterlimit="10" stroke-width="2" clip-path="url(#bLfqvhrkuSNs)"/><g clip-path="url(#bLfqvhrkuSNs)"><text fill="#444444" stroke="none" font-family="helvetica" font-size="13px" font-style="normal" font-weight="normal" text-decoration="normal" x="0" y="4.5" text-anchor="start" dominant-baseline="alphabetic" transform="matrix(1, 0, 0, 1, 406.5, 35.5)">qext Ag</text></g><g clip-path="url(#bLfqvhrkuSNs)"><text fill="none" stroke="rgb(0 0 0 / 0)" font-family="helvetica" font-size="13px" font-style="normal" font-weight="normal" text-decoration="normal" x="0" y="4.5" text-anchor="start" dominant-baseline="alphabetic" transform="matrix(1, 0, 0, 1, 406.5, 35.5)" stroke-linejoin="bevel" stroke-miterlimit="10">qext Ag</text></g><path fill="none" stroke="#ff7f0e" paint-order="fill" d="M 381.5 58.5 L 401.5 58.5" stroke-linejoin="bevel" stroke-miterlimit="10" stroke-width="2" clip-path="url(#bLfqvhrkuSNs)"/><g clip-path="url(#bLfqvhrkuSNs)"><text fill="#444444" stroke="none" font-family="helvetica" font-size="13px" font-style="normal" font-weight="normal" text-decoration="normal" x="0" y="4.5" text-anchor="start" dominant-baseline="alphabetic" transform="matrix(1, 0, 0, 1, 406.5, 58.5)">qext Al</text></g><g clip-path="url(#bLfqvhrkuSNs)"><text fill="none" stroke="rgb(0 0 0 / 0)" font-family="helvetica" font-size="13px" font-style="normal" font-weight="normal" text-decoration="normal" x="0" y="4.5" text-anchor="start" dominant-baseline="alphabetic" transform="matrix(1, 0, 0, 1, 406.5, 58.5)" stroke-linejoin="bevel" stroke-miterlimit="10">qext Al</text></g></svg>